<svg xmlns="http://www.w3.org/2000/svg" width="50" height="50" viewBox="0 0 50 50" fill="none">
<circle cx="25" cy="25" r="25" fill="#2081E2"/>
<path d="M41 29.337C41 29.6707 40.8616 29.9737 40.6401 30.195C40.6383 30.1968 40.6364 30.1986 40.6327 30.2004C40.546 30.2857 40.4481 30.3582 40.3393 30.4145C40.3374 30.4163 40.3356 30.4163 40.3337 30.4181C40.1325 30.5596 39.9221 30.6884 39.7062 30.8099C39.7043 30.8099 39.7043 30.8117 39.7025 30.8117C39.6877 30.8208 39.673 30.828 39.6582 30.8371C39.6564 30.8371 39.6564 30.8389 39.6545 30.8389C39.3574 31.0022 39.0454 31.1455 38.7243 31.267C38.6154 31.3069 38.5065 31.345 38.3976 31.3813C37.6667 31.6189 36.886 31.7477 36.0758 31.7477C36.0739 31.7477 36.0739 31.7477 36.0721 31.7477V31.7677H32.3845C32.4122 33.7467 34.0529 35.3412 36.0721 35.3412C36.755 35.3412 37.3087 35.8854 37.3087 36.5566C37.3087 36.8758 37.1832 37.1679 36.9765 37.3856C36.9765 37.3874 36.9728 37.391 36.9691 37.3928C36.8786 37.489 36.7698 37.5706 36.6498 37.6323C36.6479 37.6341 36.6461 37.6359 36.6424 37.6359C35.439 38.4758 33.968 38.9692 32.3789 38.9692C28.3831 38.9692 25.1273 35.8455 25 31.9473V31.9545C24.8856 35.8636 21.6243 39 17.6211 39C16.032 39 14.561 38.5066 13.3576 37.6667C13.3539 37.6667 13.3521 37.6649 13.3502 37.6631C13.2302 37.6014 13.1214 37.5198 13.0309 37.4237C13.0272 37.4218 13.0235 37.4182 13.0235 37.4164C12.8168 37.1987 12.6913 36.9067 12.6913 36.5874C12.6913 35.9162 13.245 35.3721 13.9279 35.3721C15.9581 35.3721 17.6045 33.7612 17.6174 31.7677V31.7441C17.6174 31.443 17.5805 31.1491 17.5085 30.868H17.5066C16.558 31.3868 15.4801 31.706 14.3339 31.7677H14.3321C14.1974 31.7749 14.0608 31.7786 13.9242 31.7786C13.114 31.7786 12.3333 31.6498 11.6024 31.4121C11.4935 31.3759 11.3846 31.3378 11.2757 31.2979C10.9545 31.1763 10.6426 31.033 10.3455 30.8698C10.3436 30.8698 10.3436 30.868 10.3418 30.868C10.327 30.8589 10.3123 30.8516 10.2975 30.8426C10.2957 30.8426 10.2956 30.8407 10.2938 30.8407C10.0779 30.7192 9.86746 30.5904 9.66628 30.4489C9.66443 30.4471 9.66259 30.4471 9.66074 30.4453C9.55185 30.3891 9.45403 30.3165 9.36728 30.2313C9.36359 30.2294 9.36175 30.2276 9.3599 30.2258C9.13842 30.0045 9 29.7016 9 29.3678C9 28.7184 9.51493 28.1869 10.1665 28.1488C10.1923 28.1452 10.2181 28.1452 10.244 28.1452C10.2698 28.1452 10.2957 28.1452 10.3196 28.1488C10.6574 28.1434 10.9841 28.0908 11.2942 28.0001C11.296 28.0001 11.296 28.0001 11.2978 28.0001C11.523 27.9348 11.7371 27.8477 11.942 27.7443C12.145 27.6391 12.3369 27.5175 12.5178 27.3797C12.6359 27.2872 12.7504 27.1874 12.8574 27.0822C13.2856 26.6577 13.6086 26.1317 13.7821 25.5439C13.8596 25.2845 13.9094 25.0143 13.9242 24.7349V20.8838C13.9242 19.6249 14.142 18.4168 14.5407 17.2922C16.0504 13.0457 20.1625 10 24.9982 10C29.8227 10 33.9256 13.033 35.4446 17.2632C35.4501 17.2613 35.4538 17.2613 35.4593 17.2613C35.858 18.386 36.0758 19.5941 36.0758 20.853V24.7041C36.0906 24.9834 36.1404 25.2537 36.2179 25.5131C36.3914 26.1008 36.7144 26.6269 37.1426 27.0514C37.2496 27.1566 37.3641 27.2563 37.4822 27.3488C37.6631 27.4867 37.855 27.6101 38.058 27.7135C38.2629 27.8187 38.477 27.9039 38.7022 27.9692C38.704 27.9692 38.704 27.9692 38.7059 27.9692C39.0159 28.0599 39.3426 28.1125 39.6804 28.118C39.7043 28.1143 39.7302 28.1143 39.756 28.1143C39.7819 28.1143 39.8077 28.1143 39.8335 28.118C40.4851 28.1561 41 28.6876 41 29.337Z" fill="white" stroke="white" stroke-width="0.25" stroke-miterlimit="10"/>
<path d="M18.8647 26.221C18.8647 26.8768 19.3951 27.4071 20.0491 27.4071C20.2471 27.4071 20.4327 27.3594 20.5953 27.2728C20.5989 27.2728 20.6006 27.271 20.6024 27.2692C20.7173 27.2091 20.8216 27.1296 20.9082 27.0359C20.9118 27.0341 20.9153 27.0306 20.9153 27.0288C21.1133 26.8167 21.2335 26.5321 21.2335 26.221C21.2335 25.5669 20.7032 25.0366 20.0491 25.0366C19.3951 25.0366 18.8647 25.5669 18.8647 26.221Z" fill="#2081E2" stroke="#2081E2" stroke-miterlimit="10"/>
<path d="M18.8647 26.221C18.8647 26.8768 19.3951 27.4071 20.0491 27.4071C20.2471 27.4071 20.4327 27.3594 20.5953 27.2728C20.5989 27.2728 20.6006 27.271 20.6024 27.2692C20.7173 27.2091 20.8216 27.1296 20.9082 27.0359C20.9118 27.0341 20.9153 27.0306 20.9153 27.0288C21.1133 26.8167 21.2335 26.5321 21.2335 26.221C21.2335 25.5669 20.7032 25.0366 20.0491 25.0366C19.3951 25.0366 18.8647 25.5669 18.8647 26.221Z" fill="#2081E2" stroke="#2081E2" stroke-miterlimit="10"/>
<path d="M28.8032 26.221C28.8032 26.8768 29.3335 27.4071 29.9876 27.4071C30.1856 27.4071 30.3712 27.3594 30.5338 27.2728C30.5373 27.2728 30.5391 27.271 30.5409 27.2692C30.6558 27.2091 30.7601 27.1296 30.8467 27.0359C30.8502 27.0341 30.8538 27.0306 30.8538 27.0288C31.0517 26.8167 31.172 26.5321 31.172 26.221C31.172 25.5669 30.6416 25.0366 29.9876 25.0366C29.3335 25.0366 28.8032 25.5669 28.8032 26.221Z" fill="#2081E2" stroke="#2081E2" stroke-miterlimit="10"/>
<path d="M28.8032 26.221C28.8032 26.8768 29.3335 27.4071 29.9876 27.4071C30.1856 27.4071 30.3712 27.3594 30.5338 27.2728C30.5373 27.2728 30.5391 27.271 30.5409 27.2692C30.6558 27.2091 30.7601 27.1296 30.8467 27.0359C30.8502 27.0341 30.8538 27.0306 30.8538 27.0288C31.0517 26.8167 31.172 26.5321 31.172 26.221C31.172 25.5669 30.6416 25.0366 29.9876 25.0366C29.3335 25.0366 28.8032 25.5669 28.8032 26.221Z" fill="#2081E2" stroke="#2081E2" stroke-miterlimit="10"/>
</svg>